<svg width="28" height="28" viewBox="0 0 28 28" fill="none" xmlns="http://www.w3.org/2000/svg">
<path d="M14.0002 26.5418C7.08183 26.5418 1.4585 20.9185 1.4585 14.0002C1.4585 7.08183 7.08183 1.4585 14.0002 1.4585C20.9185 1.4585 26.5418 7.08183 26.5418 14.0002C26.5418 20.9185 20.9185 26.5418 14.0002 26.5418ZM14.0002 3.2085C8.05016 3.2085 3.2085 8.05016 3.2085 14.0002C3.2085 19.9502 8.05016 24.7918 14.0002 24.7918C19.9502 24.7918 24.7918 19.9502 24.7918 14.0002C24.7918 8.05016 19.9502 3.2085 14.0002 3.2085Z" fill="black"/>
<path d="M10.6983 18.1766C10.4766 18.1766 10.2549 18.0949 10.0799 17.9199C9.74159 17.5816 9.74159 17.0216 10.0799 16.6833L16.6833 10.0799C17.0216 9.74159 17.5816 9.74159 17.9199 10.0799C18.2583 10.4183 18.2583 10.9783 17.9199 11.3166L11.3166 17.9199C11.1533 18.0949 10.9199 18.1766 10.6983 18.1766Z" fill="black"/>
<path d="M17.3016 18.1766C17.0799 18.1766 16.8583 18.0949 16.6833 17.9199L10.0799 11.3166C9.74159 10.9783 9.74159 10.4183 10.0799 10.0799C10.4183 9.74159 10.9783 9.74159 11.3166 10.0799L17.9199 16.6833C18.2583 17.0216 18.2583 17.5816 17.9199 17.9199C17.7449 18.0949 17.5233 18.1766 17.3016 18.1766Z" fill="black"/>
</svg>
